<?xml version="1.0" encoding="UTF-8"?><svg id="Layer_2" xmlns="http://www.w3.org/2000/svg" viewBox="0 0 934.05 306.13"><defs><style>.cls-1{letter-spacing:0em;}.cls-2{letter-spacing:0em;}.cls-3{letter-spacing:0em;}.cls-4{letter-spacing:0em;}.cls-5{letter-spacing:-.03em;}.cls-6{font-family:SchibstedGrotesk-Medium, 'Schibsted Grotesk';font-size:48.97px;font-weight:500;}.cls-7{letter-spacing:0em;}.cls-8{letter-spacing:0em;}.cls-9{fill:#1d1d1d;}.cls-10{letter-spacing:0em;}.cls-11{fill:#ace01b;fill-rule:evenodd;}.cls-12{letter-spacing:.01em;}.cls-13{letter-spacing:.02em;}</style></defs><g id="Layer_1-2"><path class="cls-11" d="m98.72,31.86c3.99,2.14,7.83,4.46,11.49,6.93,7.41,5,14.27,10.65,20.49,16.87,4.57,4.57,8.84,9.5,12.77,14.73,2.34,3.12,5.69,4.8,9.59,4.8s7.25-1.68,9.59-4.8c3.93-5.23,8.2-10.16,12.77-14.73,6.22-6.21,13.08-11.87,20.49-16.87,3.66-2.47,7.5-4.78,11.49-6.93,3.08-1.66,6.37-1.91,9.67-.74,3.3,1.17,5.7,3.43,7.06,6.65l4.65,11.03c2.38,5.66.16,12.13-5.2,15.12-2.56,1.43-5.09,2.99-7.57,4.66-5.4,3.64-10.47,7.83-15.15,12.51-4.67,4.67-8.87,9.75-12.51,15.15-2.85,4.23-5.36,8.58-7.49,13.02-2.25,4.67-1.34,10.01,2.33,13.67,3.67,3.67,9,4.58,13.67,2.33,4.44-2.14,8.79-4.64,13.02-7.5,5.4-3.64,10.47-7.83,15.15-12.51,4.67-4.67,8.87-9.75,12.51-15.15,1.67-2.48,3.23-5.01,4.66-7.57,3-5.36,9.47-7.58,15.13-5.2l11.03,4.65c3.23,1.36,5.49,3.76,6.65,7.06,1.17,3.3.92,6.58-.74,9.67-2.15,3.99-4.46,7.83-6.93,11.49-5,7.41-10.65,14.27-16.87,20.49-4.57,4.57-9.5,8.84-14.73,12.77-3.12,2.34-4.79,5.69-4.79,9.59s1.68,7.25,4.79,9.59c5.23,3.93,10.16,8.19,14.73,12.77,6.22,6.22,11.87,13.08,16.87,20.49,2.47,3.66,4.78,7.5,6.93,11.49,1.66,3.08,1.91,6.37.74,9.67-1.17,3.3-3.42,5.7-6.65,7.06l-11.03,4.65c-5.66,2.38-12.13.16-15.13-5.2-1.43-2.56-2.99-5.09-4.66-7.57-3.64-5.4-7.83-10.47-12.51-15.15-4.67-4.67-9.75-8.87-15.15-12.51-4.23-2.85-8.58-5.36-13.02-7.5-4.68-2.25-10.01-1.34-13.67,2.33-3.67,3.67-4.58,9-2.33,13.67,2.13,4.44,4.64,8.8,7.49,13.02,3.64,5.4,7.84,10.47,12.51,15.15,4.67,4.67,9.75,8.87,15.15,12.51,2.48,1.67,5.01,3.23,7.57,4.66,5.36,3,7.58,9.47,5.2,15.12l-4.65,11.03c-1.36,3.23-3.75,5.48-7.06,6.65-3.3,1.17-6.58.91-9.67-.74-4-2.15-7.83-4.46-11.49-6.93-7.41-5-14.27-10.65-20.49-16.87-4.57-4.57-8.84-9.5-12.77-14.73-2.34-3.12-5.7-4.8-9.59-4.8s-7.25,1.68-9.59,4.8c-3.93,5.23-8.19,10.16-12.77,14.73-6.21,6.21-13.08,11.87-20.49,16.87-3.66,2.47-7.5,4.78-11.49,6.93-3.08,1.66-6.37,1.91-9.67.74-3.3-1.17-5.7-3.43-7.06-6.65l-4.65-11.03c-2.38-5.66-.16-12.13,5.2-15.12,2.56-1.43,5.09-2.99,7.57-4.66,5.4-3.64,10.48-7.83,15.15-12.51,4.67-4.67,8.87-9.75,12.51-15.15,2.85-4.23,5.36-8.58,7.49-13.02,2.25-4.67,1.34-10.01-2.33-13.67-3.67-3.67-9-4.58-13.68-2.33-4.44,2.13-8.79,4.64-13.02,7.5-5.4,3.64-10.48,7.83-15.15,12.51-4.67,4.67-8.87,9.75-12.51,15.15-1.67,2.48-3.23,5.01-4.66,7.57-3,5.36-9.47,7.58-15.12,5.2l-11.03-4.65c-3.22-1.36-5.48-3.76-6.65-7.06-1.17-3.3-.92-6.58.74-9.67,2.14-3.99,4.46-7.83,6.93-11.49,5-7.41,10.65-14.27,16.87-20.49,4.57-4.57,9.5-8.84,14.73-12.77,3.12-2.34,4.8-5.69,4.8-9.59s-1.68-7.25-4.8-9.59c-5.23-3.93-10.15-8.19-14.73-12.77-6.21-6.21-11.87-13.08-16.87-20.49-2.47-3.66-4.78-7.5-6.93-11.49-1.66-3.08-1.91-6.37-.74-9.67,1.16-3.3,3.42-5.7,6.65-7.06l11.03-4.65c5.66-2.38,12.13-.16,15.12,5.2,1.43,2.56,2.99,5.09,4.66,7.57,3.64,5.4,7.84,10.47,12.51,15.15,4.67,4.67,9.75,8.87,15.15,12.51,4.23,2.85,8.58,5.36,13.02,7.5,4.68,2.25,10.01,1.34,13.68-2.33,3.67-3.67,4.58-9,2.33-13.67-2.13-4.44-4.64-8.79-7.49-13.02-3.64-5.4-7.84-10.47-12.51-15.15-4.67-4.67-9.75-8.87-15.15-12.51-2.48-1.67-5.01-3.23-7.57-4.66-5.36-3-7.58-9.47-5.2-15.12l4.65-11.03c1.36-3.23,3.76-5.49,7.06-6.65,3.3-1.17,6.58-.91,9.67.74h0ZM0,153.06c0,13.98,11.34,25.32,25.32,25.32s25.32-11.34,25.32-25.32-11.33-25.32-25.32-25.32S0,139.08,0,153.06h0Zm153.06,153.06c13.98,0,25.32-11.34,25.32-25.32s-11.34-25.32-25.32-25.32-25.32,11.34-25.32,25.32,11.34,25.32,25.32,25.32h0Zm153.06-153.06c0-13.98-11.34-25.32-25.32-25.32s-25.32,11.34-25.32,25.32,11.33,25.32,25.32,25.32,25.32-11.34,25.32-25.32h0ZM153.06,0c-13.98,0-25.32,11.34-25.32,25.32s11.34,25.32,25.32,25.32,25.32-11.34,25.32-25.32S167.05,0,153.06,0Z"/><path class="cls-9" d="m425.25,77.55c24.74,0,42.75,20.26,42.75,49.15s-18.01,49.15-42.75,49.15c-11.63,0-22.83-4.47-30.26-13.57l-1.14,10.24c-6.63-.46-13.26-.69-19.9-.69s-13.28.23-19.9.69l-.46-18.98,10.18-1.85v-87.57l-10.18-1.85.93-18.98c6.94.46,13.88.69,20.83.69s13.89-.23,20.83-.69v42.32c-2.02,3.12-3.59,6.63-4.6,10.49,6.83-11.99,19.55-18.56,33.68-18.56h0Zm-9.83,73.69c14.11,0,19.25-11.77,19.25-24.57s-5.14-24.49-19.25-24.49-19.25,11.69-19.25,24.49,5.14,24.57,19.25,24.57h0Z"/><path class="cls-9" d="m577.5,153.55l-.46,18.98c-6.66-.46-13.24-.65-19.9-.65s-13.24.19-19.9.65l-1.27-11.46c-6.2,9.89-17.65,14.8-29.64,14.8-17.03,0-32.77-10-32.77-28.42,0-28.14,36.66-32.12,52.39-32.12h8.98v-2.78c0-7.87-8.33-10.37-16.66-10.37-11.57,0-24.53,4.91-33.05,10.37l-5.28-18.24c9.72-10,26.66-16.76,43.14-16.76,28.79,0,44.25,13.42,44.25,38.05v36.1l10.18,1.85Zm-62.21-2.31c10.28,0,19.62-10.37,19.62-20.09h0s-5.92,0-5.92,0c-11.39,0-23.23,2.87-23.23,11.66,0,4.91,3.61,8.42,9.53,8.42h0Z"/><path class="cls-9" d="m656.56,77.55c24.74,0,42.75,20.26,42.75,49.15s-18.01,49.15-42.75,49.15c-11.63,0-22.83-4.47-30.26-13.57l-1.14,10.24c-6.63-.46-13.26-.69-19.9-.69s-13.28.23-19.9.69l-.46-18.98,10.18-1.85v-87.57l-10.18-1.85.93-18.98c6.94.46,13.88.69,20.83.69s13.89-.23,20.83-.69v42.32c-2.02,3.12-3.59,6.63-4.6,10.49,6.83-11.99,19.55-18.56,33.68-18.56h0Zm-9.83,73.69c14.11,0,19.26-11.77,19.26-24.57s-5.14-24.49-19.26-24.49-19.25,11.69-19.25,24.49,5.14,24.57,19.25,24.57h0Z"/><path class="cls-9" d="m812.79,126.89c0,31.01-21.96,49.15-53.04,49.15s-53.04-18.14-53.04-49.15,21.96-49.15,53.04-49.15,53.04,18.14,53.04,49.15Zm-53.04,24.53c14.11,0,19.72-11.77,19.72-24.57s-5.61-24.49-19.72-24.49-19.72,11.69-19.72,24.49,5.61,24.57,19.72,24.57h0Z"/><path class="cls-9" d="m934.05,153.55l-.46,18.98c-8.63-.46-17.28-.69-25.92-.69s-17.29.23-25.92.69l-.46-18.98,10.18-1.85v-31.18c0-12.35-5.82-18.34-16.67-18.34s-16.66,9.02-16.66,21.16v28.37l10.18,1.85-.46,18.98c-8.63-.46-17.28-.69-25.92-.69s-17.29.23-25.92.69l-.46-18.98,10.18-1.85v-49.98l-10.18-1.85.93-18.98c6.55.46,13.11.69,19.67.69s13.12-.23,19.67-.69l.53,4.73c-2.1,3.17-3.71,6.77-4.61,10.83,2.83-5.23,6.73-9.36,11.43-12.41,6.69-4.35,14.99-6.5,24.06-6.5,24.23,0,36.64,15.33,36.64,41.33v32.81l10.19,1.85Z"/><text class="cls-6" transform="translate(353.59 250.23)"><tspan class="cls-7" x="0" y="0">C</tspan><tspan class="cls-8" x="34.58" y="0">o</tspan><tspan class="cls-1" x="63.77" y="0">nn</tspan><tspan class="cls-12" x="121.63" y="0">e</tspan><tspan class="cls-2" x="150.62" y="0">c</tspan><tspan x="177.63" y="0">t a</tspan><tspan class="cls-4" x="234.25" y="0">n</tspan><tspan class="cls-3" x="263.67" y="0">d </tspan><tspan class="cls-10" x="304.89" y="0">s</tspan><tspan class="cls-13" x="330.35" y="0">h</tspan><tspan class="cls-3" x="359.36" y="0">a</tspan><tspan class="cls-5" x="386.95" y="0">r</tspan><tspan x="405.94" y="0">e</tspan></text></g></svg>