<?xml version="1.0" encoding="UTF-8"?><svg id="Layer_2" xmlns="http://www.w3.org/2000/svg" viewBox="0 0 449.32 520.49"><defs><style>.cls-1{fill:#686868;}</style></defs><g id="Layer_1-2"><path class="cls-1" d="m340.29,185.51c-6.52-15.16-15.83-28.71-27.69-40.29-11.84-11.57-25.6-20.56-40.9-26.71-15.86-6.39-32.66-9.42-49.93-9.01-33,.78-63.91,14.3-87.02,38.09-23.11,23.78-35.76,55.06-35.62,88.07.1,23.26,6.6,45.95,18.81,65.63,16.34,26.33,24.98,56.22,24.98,86.44v2.03c0,19.51,15.87,35.38,35.38,35.38h92.98c19.51,0,35.38-15.87,35.38-35.38v-2.04c0-30.37,8.58-60.16,24.81-86.16,12.42-19.9,18.99-42.87,18.99-66.44,0-17.22-3.42-33.91-10.18-49.61Zm-24.07,106.52c-18.02,28.86-27.54,61.95-27.54,95.69v2.04c0,9.59-7.8,17.39-17.39,17.39h-92.98c-9.59,0-17.39-7.8-17.39-17.39v-2.03c0-33.57-9.57-66.74-27.69-95.93-10.46-16.85-16.03-36.29-16.11-56.22-.24-58.24,46.89-106.74,105.07-108.1.88-.02,1.75-.03,2.62-.03,28.3,0,54.92,10.82,75.21,30.64,20.92,20.43,32.44,47.79,32.44,77.03,0,20.19-5.62,39.87-16.26,56.91Z"/><path class="cls-1" d="m282.54,439.37h-115.46c-4.97,0-8.99,4.03-8.99,8.99s4.03,8.99,8.99,8.99h115.46c4.97,0,8.99-4.03,8.99-8.99s-4.03-8.99-8.99-8.99Z"/><path class="cls-1" d="m273.51,470.93h-97.4c-4.97,0-8.99,4.03-8.99,8.99s4.03,8.99,8.99,8.99h97.4c4.97,0,8.99-4.03,8.99-8.99s-4.03-8.99-8.99-8.99Z"/><path class="cls-1" d="m243.3,502.5h-36.98c-4.97,0-8.99,4.03-8.99,8.99s4.03,8.99,8.99,8.99h36.98c4.97,0,8.99-4.03,8.99-8.99s-4.03-8.99-8.99-8.99Z"/><path class="cls-1" d="m224.81,74.89h.02c4.97-.01,8.99-4.05,8.97-9.01l-.13-56.9c-.01-4.96-4.04-8.97-8.99-8.97h-.02c-4.97.01-8.99,4.05-8.97,9.01l.13,56.9c.01,4.96,4.04,8.97,8.99,8.97Z"/><path class="cls-1" d="m337.02,121.5c2.31,0,4.62-.88,6.37-2.65l40.15-40.33c3.5-3.52,3.49-9.22-.03-12.72-3.52-3.5-9.22-3.49-12.72.03l-40.15,40.33c-3.5,3.52-3.49,9.22.03,12.72,1.76,1.75,4.05,2.62,6.35,2.62Z"/><path class="cls-1" d="m440.32,215.68h-.02l-56.9.13c-4.97.01-8.99,4.05-8.97,9.01.01,4.96,4.04,8.97,8.99,8.97h.02l56.9-.13c4.97-.01,8.99-4.05,8.97-9.01-.01-4.96-4.04-8.97-8.99-8.97Z"/><path class="cls-1" d="m401.9,365.09l-47.69-31.05c-4.16-2.71-9.73-1.53-12.45,2.63-2.71,4.16-1.53,9.73,2.63,12.44l47.69,31.05c1.52.99,3.22,1.46,4.9,1.46,2.94,0,5.82-1.44,7.55-4.09,2.71-4.16,1.53-9.73-2.63-12.44Z"/><path class="cls-1" d="m96.5,334.03l-47.69,31.05c-4.16,2.71-5.34,8.28-2.63,12.44,1.72,2.65,4.6,4.09,7.55,4.09,1.68,0,3.38-.47,4.9-1.46l47.69-31.05c4.16-2.71,5.34-8.28,2.63-12.44-2.71-4.16-8.28-5.34-12.44-2.63Z"/><path class="cls-1" d="m74.89,224.49c-.01-4.96-4.04-8.97-8.99-8.97h-.02l-56.9.13C4.01,215.66-.01,219.69,0,224.66c.01,4.96,4.04,8.97,8.99,8.97h.02l56.9-.13c4.97-.01,8.99-4.05,8.97-9.01Z"/><path class="cls-1" d="m106.16,118.67c1.76,1.75,4.05,2.62,6.35,2.62s4.62-.88,6.37-2.65c3.5-3.52,3.49-9.22-.03-12.72l-40.33-40.15c-3.52-3.5-9.22-3.49-12.72.03-3.5,3.52-3.49,9.22.03,12.72l40.33,40.15Z"/></g></svg>