<?xml version="1.0" encoding="UTF-8"?><svg id="Layer_2" xmlns="http://www.w3.org/2000/svg" viewBox="0 0 196.38 173.1"><defs><style>.cls-1{fill:#686868;}</style></defs><g id="Layer_1-2"><path class="cls-1" d="m172.32,23.44c19.74,16.66,29.22,42.72,21.22,67.79-4.46,13.97-14.06,26.94-28.79,36.7-.47.31-.75.83-.75,1.38l-6.63,42.12c0,1.48-1.79,2.23-2.84,1.18l-29.84-28.74c-.38-.38-.91-.55-1.44-.46-8.27,1.37-16.67,1.99-25.05,1.99-52,0-83.43-23.01-94.11-50.62C-3.24,75.86-.53,54.87,10.78,38.11,42.11-8.31,131.22-11.25,172.32,23.44h0Z"/></g></svg>