<?xml version="1.0" encoding="UTF-8"?><svg id="Layer_2" xmlns="http://www.w3.org/2000/svg" viewBox="0 0 413.28 413.27"><defs><style>.cls-1{fill:#7dd6b4;}</style></defs><g id="Layer_1-2"><path class="cls-1" d="m206.64,413.27c-55.2,0-107.09-21.49-146.11-60.52C21.49,313.72,0,261.83,0,206.64S21.49,99.55,60.52,60.52C99.55,21.49,151.44,0,206.64,0s107.09,21.49,146.11,60.52c39.03,39.03,60.52,90.92,60.52,146.11s-21.49,107.09-60.52,146.11c-39.03,39.03-90.92,60.52-146.11,60.52ZM16.17,214.64c1.97,47.86,21.69,92.83,55.66,126.8,36.01,36.01,83.88,55.83,134.8,55.83s98.8-19.83,134.8-55.83c33.98-33.98,53.69-78.94,55.66-126.8h-40.14c-4.41,0-8-3.59-8-8s3.59-8,8-8h40.14c-1.16-28.42-8.36-55.43-21.44-80.35l-34.85,20.12c-1.22.7-2.6,1.07-3.99,1.07-2.85,0-5.51-1.53-6.93-4-2.21-3.82-.89-8.72,2.93-10.93l34.82-20.1c-7.49-11.74-16.29-22.7-26.2-32.61-9.91-9.91-20.87-18.71-32.61-26.2l-20.1,34.82c-1.42,2.47-4.08,4-6.93,4-1.4,0-2.78-.37-3.99-1.07-3.82-2.21-5.13-7.11-2.93-10.93l20.12-34.85c-24.92-13.07-51.93-20.28-80.35-21.43v40.14c0,4.41-3.59,8-8,8s-8-3.59-8-8V16.17c-28.42,1.16-55.43,8.36-80.35,21.43l20.12,34.85c2.21,3.82.89,8.72-2.93,10.93-1.22.7-2.6,1.07-3.99,1.07-2.85,0-5.51-1.53-6.93-4l-20.1-34.82c-11.74,7.49-22.71,16.29-32.61,26.2-9.91,9.91-18.71,20.87-26.2,32.61l34.82,20.1c3.82,2.21,5.13,7.11,2.93,10.93-1.42,2.47-4.08,4-6.93,4-1.4,0-2.78-.37-3.99-1.07l-34.85-20.12c-13.07,24.92-20.28,51.93-21.43,80.35h40.14c4.41,0,8,3.59,8,8s-3.59,8-8,8H16.17Z"/><path class="cls-1" d="m206.64,240.13c-18.47,0-33.49-15.02-33.49-33.49s15.02-33.49,33.49-33.49c6.25,0,12.29,1.72,17.57,5l58.76-59.72c1.52-1.54,3.54-2.39,5.7-2.39s4.1.82,5.61,2.3c1.52,1.5,2.37,3.5,2.39,5.64.02,2.14-.8,4.15-2.3,5.68l-58.95,59.91c3.08,5.17,4.7,11.04,4.7,17.08,0,18.47-15.02,33.49-33.49,33.49Zm0-50.98c-9.64,0-17.49,7.85-17.49,17.49s7.85,17.49,17.49,17.49,17.49-7.85,17.49-17.49-7.85-17.49-17.49-17.49Z"/></g></svg>