<?xml version="1.0" encoding="UTF-8"?><svg id="Layer_2" xmlns="http://www.w3.org/2000/svg" viewBox="0 0 457.4 274.31"><defs><style>.cls-1{fill:none;stroke:#686868;stroke-linecap:round;stroke-linejoin:round;stroke-width:20px;}.cls-2{fill:#686868;}</style></defs><g id="Layer_1-2"><path d="m40.67,0h270.16c11.18,0,21.35,4.58,28.73,11.94v.02c7.36,7.37,11.94,17.54,11.94,28.7v37.49l95.37-55.06c4.68-2.7,10.54.68,10.54,6.08v213.87c0,6.33-6.85,10.28-12.33,7.12l-93.57-54.02v37.49c0,11.18-4.58,21.35-11.94,28.73-7.37,7.36-17.54,11.94-28.73,11.94H40.67c-11.16,0-21.33-4.58-28.7-11.97l-.02.02c-7.36-7.37-11.94-17.54-11.94-28.73V40.67c0-11.17,4.58-21.33,11.94-28.69l.04-.04C19.34,4.58,29.5,0,40.67,0h0Zm310.83,96.81v80.7l89.68,51.78V45.03l-79.77,46.06-9.9,5.71Zm-40.67-80.59H40.67c-6.73,0-12.84,2.76-17.28,7.18-4.42,4.43-7.18,10.55-7.18,17.28v192.98c0,6.71,2.76,12.83,7.19,17.26v.02c4.42,4.42,10.52,7.17,17.26,7.17h270.16c6.71,0,12.83-2.76,17.26-7.19,4.43-4.43,7.19-10.55,7.19-17.26V40.67c0-6.74-2.75-12.84-7.17-17.26h-.02c-4.43-4.43-10.55-7.19-17.26-7.19h0Z"/><path class="cls-2" d="m40.67,276.31c-11.22,0-21.81-4.36-29.86-12.29-.1-.07-.2-.15-.28-.23-8.08-8.09-12.53-18.79-12.53-30.14V40.67c0-11.34,4.45-22.03,12.53-30.11C18.64,2.45,29.33-2,40.67-2h270.16c11.35,0,22.05,4.45,30.14,12.53.08.08.15.16.21.25,7.94,8.06,12.31,18.66,12.31,29.89v34.03l92.37-53.33c1.38-.8,2.94-1.22,4.5-1.22,4.98,0,9.03,4.05,9.03,9.03v213.87c0,5.64-4.59,10.23-10.23,10.23-1.77,0-3.53-.48-5.1-1.38l-90.57-52.29v34.03c0,11.35-4.45,22.05-12.53,30.14-8.09,8.08-18.8,12.53-30.14,12.53H40.67Zm-15.68-26.63c4.22,4.14,9.78,6.42,15.68,6.42h270.16c5.96,0,11.59-2.35,15.85-6.61s6.61-9.89,6.61-15.85V40.67c0-5.9-2.28-11.46-6.42-15.69-.06-.05-.13-.1-.18-.16-4.26-4.26-9.89-6.61-15.85-6.61H40.67c-5.96,0-11.6,2.34-15.86,6.59-4.25,4.26-6.59,9.9-6.59,15.86v192.98c0,5.96,2.35,11.59,6.61,15.85.06.06.12.12.17.19Zm414.19-23.86V48.49l-85.67,49.47v78.39l85.67,49.47Z"/><line class="cls-1" x1="95.23" y1="59.03" x2="224.72" y2="59.03"/></g></svg>